<?xml version="1.0" encoding="UTF-8"?>
<svg id="Layer_1" xmlns="http://www.w3.org/2000/svg" version="1.1" viewBox="0 0 1164 385">
  <!-- Generator: Adobe Illustrator 29.7.1, SVG Export Plug-In . SVG Version: 2.1.1 Build 8)  -->
  <defs>
    <style>
      .st0 {
        isolation: isolate;
      }
    </style>
  </defs>
  <g class="st0">
    <path d="M358.18,288.72c-6.54,0-12.25-.88-17.13-2.63-4.88-1.76-8.68-4.55-11.38-8.39-2.7-3.83-4.06-8.88-4.06-15.14h24.64c.12,2.22.92,4,2.39,5.33,1.47,1.33,3.99,2,7.54,2,2.87,0,5.03-.38,6.48-1.15,1.45-.77,2.26-1.84,2.42-3.21.2-1.13,0-2.19-.58-3.18-.59-.99-1.93-2.07-4.03-3.24-2.1-1.17-5.35-2.58-9.75-4.24-3.84-1.41-7.52-3.33-11.05-5.75-3.53-2.42-6.27-5.57-8.2-9.45s-2.5-8.68-1.7-14.41c.73-4.76,2.62-8.66,5.69-11.69,3.07-3.03,7.02-5.24,11.87-6.63s10.27-2.03,16.29-1.91c5.93.08,11.27.96,16.01,2.63,4.74,1.68,8.53,4.3,11.35,7.87,2.82,3.57,4.28,8.25,4.36,14.02h-24.52c-.16-2.1-1.08-3.71-2.75-4.84-1.68-1.13-3.78-1.7-6.33-1.7-1.86,0-3.51.3-4.96.91s-2.28,1.8-2.48,3.57c-.08.81.15,1.62.7,2.42.54.81,1.85,1.75,3.91,2.82,2.06,1.07,5.29,2.41,9.69,4.03,5.25,1.9,9.61,4.17,13.08,6.81,3.47,2.64,5.93,5.82,7.39,9.54,1.45,3.71,1.78,8.11.97,13.2-.85,5.49-2.91,9.87-6.18,13.14s-7.45,5.63-12.53,7.08-10.8,2.18-17.13,2.18Z"/>
    <path d="M416.67,287.75l6.05-28.28-15.86-53.22h25.43l6.6,31,19.8-31h27.19l-38.45,53.22-6.18,28.28h-24.58Z"/>
    <path d="M508.58,288.72c-6.54,0-12.25-.88-17.13-2.63-4.88-1.76-8.68-4.55-11.38-8.39-2.7-3.83-4.06-8.88-4.06-15.14h24.64c.12,2.22.92,4,2.39,5.33,1.47,1.33,3.99,2,7.54,2,2.87,0,5.03-.38,6.48-1.15,1.45-.77,2.26-1.84,2.42-3.21.2-1.13,0-2.19-.58-3.18-.59-.99-1.93-2.07-4.03-3.24-2.1-1.17-5.35-2.58-9.75-4.24-3.84-1.41-7.52-3.33-11.05-5.75-3.53-2.42-6.27-5.57-8.2-9.45s-2.5-8.68-1.7-14.41c.73-4.76,2.62-8.66,5.69-11.69,3.07-3.03,7.02-5.24,11.87-6.63s10.27-2.03,16.29-1.91c5.93.08,11.27.96,16.01,2.63,4.74,1.68,8.53,4.3,11.35,7.87,2.82,3.57,4.28,8.25,4.36,14.02h-24.52c-.16-2.1-1.08-3.71-2.75-4.84-1.68-1.13-3.78-1.7-6.33-1.7-1.86,0-3.51.3-4.96.91s-2.28,1.8-2.48,3.57c-.08.81.15,1.62.7,2.42.54.81,1.85,1.75,3.91,2.82,2.06,1.07,5.29,2.41,9.69,4.03,5.25,1.9,9.61,4.17,13.08,6.81,3.47,2.64,5.93,5.82,7.39,9.54,1.45,3.71,1.78,8.11.97,13.2-.85,5.49-2.91,9.87-6.18,13.14s-7.45,5.63-12.53,7.08-10.8,2.18-17.13,2.18Z"/>
    <path d="M563.98,287.75l13.14-61.76h-20.1l4.12-19.74h64.24l-4.24,19.74h-20.1l-13.26,61.76h-23.79Z"/>
    <path d="M617.02,287.75l17.38-81.5h57.76l-4.24,19.62h-33.97l-2.24,11.14h30.03l-4.12,18.89h-29.85l-2.6,12.23h33.85l-4.24,19.62h-57.76Z"/>
    <path d="M689.07,287.75l17.38-81.5h26.76l10.29,30.15,23.43-30.15h28.15l-17.38,81.5h-23.55l11.02-51.34-19.19,24.82h-14.17l-8.66-24.82-11.02,51.34h-23.07Z"/>
    <path d="M828.63,288.72c-6.54,0-12.25-.88-17.13-2.63s-8.68-4.55-11.38-8.39c-2.7-3.83-4.06-8.88-4.06-15.14h24.64c.12,2.22.92,4,2.39,5.33s3.99,2,7.54,2c2.87,0,5.03-.38,6.48-1.15,1.45-.77,2.26-1.84,2.42-3.21.2-1.13,0-2.19-.58-3.18-.58-.99-1.93-2.07-4.03-3.24-2.1-1.17-5.35-2.58-9.75-4.24-3.83-1.41-7.52-3.33-11.05-5.75s-6.27-5.57-8.2-9.45-2.5-8.68-1.7-14.41c.73-4.76,2.62-8.66,5.69-11.69s7.02-5.24,11.87-6.63,10.27-2.03,16.29-1.91c5.93.08,11.27.96,16.01,2.63,4.74,1.68,8.53,4.3,11.35,7.87s4.28,8.25,4.36,14.02h-24.52c-.16-2.1-1.08-3.71-2.75-4.84-1.67-1.13-3.78-1.7-6.33-1.7-1.86,0-3.51.3-4.96.91s-2.28,1.8-2.48,3.57c-.08.81.15,1.62.7,2.42.54.81,1.85,1.75,3.91,2.82,2.06,1.07,5.29,2.41,9.69,4.03,5.25,1.9,9.61,4.17,13.08,6.81,3.47,2.64,5.93,5.82,7.39,9.54,1.45,3.71,1.78,8.11.97,13.2-.85,5.49-2.91,9.87-6.18,13.14s-7.45,5.63-12.53,7.08-10.8,2.18-17.13,2.18Z"/>
  </g>
  <g class="st0">
    <path d="M343.03,185l45.41-81.5h24.95l11.14,81.5h-24.28l-1.03-12.41h-24.64l-6.36,12.41h-25.19ZM383.47,154.12h14.77l-1.76-27.12-13.02,27.12Z"/>
    <path d="M469.63,186.21c-7.91,0-14.76-1.71-20.56-5.12-5.79-3.41-10.01-8.4-12.65-14.96-2.64-6.56-3.2-14.58-1.67-24.07,1.33-8.07,4-15.09,7.99-21.04,4-5.95,9.21-10.57,15.65-13.83,6.44-3.27,14.02-4.9,22.74-4.9,4.28,0,8.48.58,12.59,1.73s7.83,2.93,11.14,5.33c3.31,2.4,5.93,5.49,7.87,9.26,1.94,3.77,2.85,8.26,2.72,13.47h-24.52c-.16-2.26-.68-4.12-1.54-5.57-.87-1.45-2.18-2.54-3.94-3.27s-4.07-1.09-6.93-1.09c-4.12,0-7.54,1.09-10.26,3.27s-4.85,4.96-6.39,8.33c-1.53,3.37-2.6,6.85-3.21,10.44-.57,3.75-.57,7.33,0,10.72.56,3.39,1.92,6.16,4.06,8.29,2.14,2.14,5.27,3.21,9.38,3.21,2.82,0,5.25-.34,7.27-1.03,2.02-.69,3.69-1.75,5.03-3.18,1.33-1.43,2.32-3.22,2.97-5.36h-15.26l3.09-17.98h39.78l-2.48,11.32c-1.09,5.05-2.62,9.75-4.6,14.11-1.98,4.36-4.6,8.18-7.87,11.47-3.27,3.29-7.39,5.85-12.35,7.69s-10.98,2.75-18.04,2.75Z"/>
    <path d="M517.89,185l17.38-81.5h57.76l-4.24,19.62h-33.97l-2.24,11.14h30.03l-4.12,18.89h-29.85l-2.6,12.23h33.85l-4.24,19.62h-57.76Z"/>
    <path d="M589.94,185l17.38-81.5h22.95l19.68,46.14,9.69-46.14h22.34l-17.38,81.5h-22.95l-19.62-46.5-9.87,46.5h-22.22Z"/>
    <path d="M694.08,185l13.14-61.76h-20.1l4.12-19.74h64.24l-4.24,19.74h-20.1l-13.26,61.76h-23.79Z"/>
    <path d="M747.12,185l17.38-81.5h23.79l-17.26,81.5h-23.92Z"/>
    <path d="M827.83,186.09c-7.79,0-14.57-1.64-20.34-4.93-5.77-3.29-10.01-8.18-12.71-14.68-2.71-6.5-3.31-14.59-1.82-24.28,1.41-9.04,4.27-16.5,8.57-22.37s9.66-10.24,16.08-13.11c6.42-2.87,13.5-4.3,21.25-4.3s13.83,1.34,19.1,4.03c5.27,2.68,9.24,6.37,11.93,11.05,2.68,4.68,3.86,10.07,3.54,16.17h-24.64c0-2.22-.47-4.19-1.42-5.9-.95-1.71-2.3-3.06-4.06-4.03s-3.87-1.45-6.33-1.45c-4.04,0-7.44.94-10.2,2.82s-4.96,4.47-6.57,7.78c-1.62,3.31-2.77,7.12-3.45,11.44-.65,4.12-.67,7.83-.06,11.14.61,3.31,1.96,5.92,4.06,7.84,2.1,1.92,5.06,2.88,8.9,2.88,4.12,0,7.6-1.08,10.44-3.24,2.85-2.16,4.67-5.5,5.48-10.02h24.52c-2.22,11.42-6.97,19.81-14.26,25.16-7.29,5.35-16.62,8.02-28,8.02Z"/>
  </g>
  <g class="st0">
    <path d="M891,288.86l17.26-81.5h7.81l-16.04,74.9h39.96l-1.39,6.6h-47.59Z"/>
    <path d="M942.7,288.86l48.5-81.5h8.29l13.26,81.5h-7.81l-3.21-25.31h-36.09l-14.53,25.31h-8.42ZM969.47,256.89h31l-6.54-41.72-24.46,41.72Z"/>
    <path d="M1024.44,288.86l17.26-81.5h24.16c5.45,0,10.01.95,13.68,2.85,3.67,1.9,6.28,4.58,7.81,8.05,1.53,3.47,1.78,7.57.73,12.29-.81,3.67-2.72,6.88-5.75,9.63-3.03,2.75-6.7,4.54-11.02,5.39,3.39.81,6.33,2.2,8.81,4.18,2.48,1.98,4.25,4.52,5.3,7.63,1.05,3.11,1.11,6.82.18,11.14-.77,3.79-2.46,7.24-5.09,10.32s-6.24,5.53-10.84,7.33c-4.6,1.8-10.29,2.69-17.07,2.69h-28.15ZM1033.46,282.26h19.86c6.58,0,12.08-1.26,16.5-3.78,4.42-2.52,7.15-6.25,8.2-11.17,1.17-5.77.13-10.17-3.12-13.2s-8.12-4.54-14.62-4.54h-19.86l-6.96,32.7ZM1041.94,242.85h17.62c6.14,0,10.98-1.21,14.53-3.63s5.77-5.71,6.66-9.87c.97-4.8.12-8.57-2.54-11.29s-7.25-4.09-13.74-4.09h-16.35l-6.18,28.88Z"/>
  </g>
  <g>
    <path d="M189.14,63.46c.06.49-.42.81-.73,1.1-1.49,1.39-3.43,2.68-5,4.04-20.04,17.37-38.26,40.87-50.96,64.19-9.18,16.87-16.48,34.91-19.58,54l-.39.26c-9.06-24.5-16.77-50.21-18.56-76.48-.29-4.31-.48-8.86-.4-13.17.02-1.08.12-4.91.63-5.61,23.88-20.27,56.34-29.98,87.54-28.82,2.42.09,5.04.72,7.44.5Z"/>
    <path d="M243.26,82.4c11.84,7.76,25.81,19.79,33.74,31.64.22.32,1.49,2.07,1.26,2.28-7.79-1.13-15.68-1.84-23.55-1.97-33.87-.57-76.86,6.26-107.04,21.94l-10.04,5.72c1.49-3.04,3.07-6.1,4.79-9.03,14.83-25.37,34.81-48.64,57.3-67.39,1.01-.44,9.04,1.48,10.68,1.89,11.53,2.92,22.93,8.39,32.86,14.91h0Z"/>
    <path d="M127.86,233.55c-10.51-3.47-20.82-7.7-30.73-12.63-15.47-7.69-32.75-18.51-45.44-30.32-.81-.75-5.07-4.87-5.26-5.5-.34-1.12.03-4.16.17-5.49,1.03-10.1,3.78-20.67,7.23-30.2,6.68-18.42,17.23-35.36,31.2-49-.09,23.89,4.57,47.4,11.97,69.99,7.4,22.59,17.6,43.67,30.88,63.14h0Z"/>
    <path d="M218.93,237.71c-1.95,5.41-3.76,10.88-5.92,16.21-7.75,19.21-18.87,39.34-31.69,55.61-3.36,4.26-6.99,8.31-10.91,12.07-5.18.15-10.41-.05-15.55-.72-10.05-1.3-21.6-4.54-30.98-8.35-12.73-5.17-25.21-13.05-34.85-22.82,9.11-.7,18.16-2.16,27.06-4.2,33.67-7.73,65.96-23.31,94.84-41.93l7.99-5.86Z"/>
    <path d="M285.52,126.18c15.82,24.09,22.36,54.4,17.4,82.89-10.16-12.17-22.1-23.06-34.62-32.78-23.19-17.99-49.58-33.72-77.08-44.07l-5-1.59c0-.34,5.82-1.38,6.54-1.51,15.64-2.96,31.87-4.98,47.76-5.71,14.97-.68,30.33-.37,44.99,2.76h0Z"/>
    <path d="M46.55,198.31c.07.42.62.95.93,1.21,27.7,23.57,63.92,41.18,98.93,51.28l22.7,5.87c-1.35.7-2.75,1.36-4.15,1.95-15.07,6.43-30.65,12.6-46.53,16.75-12.44,3.25-25.57,5.67-38.44,4.54-21.4-21.03-32.05-51.75-33.94-81.49l.48-.12h0Z"/>
    <path d="M260.09,291.21c-.8,1.2-6.59,5.32-8.12,6.41-20.3,14.43-44.96,23.22-69.9,24.52-.17-.21.78-1.33.98-1.59,6.66-8.55,12.77-15.75,18.75-25.02,18.3-28.37,30.21-60.76,34.72-94.3.35.02.38.38.49.6.99,1.9,1.96,4.47,2.8,6.5,10.58,25.72,18.54,53.62,20.83,81.44.03.56-.25.99-.54,1.43h0Z"/>
    <path d="M242.28,169.03c19.1,12.08,42.28,29.64,55.85,47.9.61.82,2.9,3.81,3.03,4.57.1.54-.16,1.94-.26,2.57-3.13,19.02-14.1,37.48-25.83,52.43-1.78,2.26-4.05,4.5-5.72,6.74-.21.28-.35.62-.38.97-.46-.11-.49-.64-.56-1.02-.41-2.25-.38-5.05-.68-7.39-5.26-39.6-20.6-78.9-41.28-112.8-.45-.74-2.5-3.49-2.64-3.97-.14-.5.27-.41.56-.32.97.29,2.8,1.63,3.74,2.12,4.82,2.57,9.53,5.28,14.16,8.2h0Z"/>
  </g>
</svg>