<svg width="2796" height="807" xmlns="http://www.w3.org/2000/svg" xmlns:xlink="http://www.w3.org/1999/xlink" xml:space="preserve" overflow="hidden"><g transform="translate(-852 -1356)"><g><rect x="857" y="1358" width="2791" height="804" fill="#FFFFFF" fill-opacity="1"/><g><g><g><path d="M860.69 693.781C844.974 693.781 831.254 691.666 819.527 687.461 807.801 683.232 798.67 676.527 792.182 667.3 785.694 658.097 782.426 645.962 782.426 630.919L841.634 630.919C841.923 636.254 843.845 640.531 847.377 643.727 850.91 646.923 856.965 648.533 865.496 648.533 872.392 648.533 877.583 647.62 881.067 645.77 884.551 643.919 886.497 641.348 886.882 638.056 887.363 635.341 886.882 632.794 885.488 630.415 884.07 628.036 880.851 625.441 875.804 622.629 870.758 619.818 862.949 616.43 852.376 612.441 843.148 609.053 834.305 604.439 825.823 598.624 817.341 592.809 810.756 585.239 806.119 575.916 801.481 566.592 800.111 555.058 802.034 541.289 803.788 529.851 808.329 520.48 815.706 513.199 823.084 505.918 832.575 500.607 844.229 497.267 855.884 493.927 868.908 492.389 883.374 492.677 897.623 492.87 910.455 494.984 921.845 498.997 933.235 503.034 942.342 509.33 949.118 517.909 955.895 526.487 959.403 537.733 959.595 551.598L900.675 551.598C900.29 546.552 898.08 542.683 894.067 539.968 890.03 537.252 884.984 535.883 878.856 535.883 874.387 535.883 870.422 536.603 866.937 538.069 863.453 539.535 861.459 542.395 860.978 546.648 860.786 548.594 861.339 550.541 862.66 552.463 863.958 554.409 867.106 556.668 872.056 559.239 877.006 561.81 884.767 565.03 895.34 568.923 907.956 573.489 918.433 578.943 926.771 585.287 935.109 591.631 941.02 599.272 944.529 608.211 948.013 617.126 948.806 627.699 946.86 639.93 944.817 653.123 939.867 663.648 932.009 671.505 924.152 679.363 914.107 685.034 901.9 688.518 889.693 692.003 875.948 693.757 860.738 693.757Z" fill="#000000" fill-rule="nonzero" fill-opacity="1" transform="matrix(1.00278 0 0 1 876.859 1318.48)"/><path d="M1001.24 691.45 1015.78 623.494 977.665 495.609 1038.77 495.609 1054.63 570.101 1102.21 495.609 1167.55 495.609 1075.15 623.494 1060.3 691.45 1001.24 691.45Z" fill="#000000" fill-rule="nonzero" fill-opacity="1" transform="matrix(1.00278 0 0 1 876.859 1318.48)"/><path d="M1222.09 693.781C1206.38 693.781 1192.66 691.666 1180.93 687.461 1169.2 683.232 1160.07 676.527 1153.59 667.3 1147.1 658.097 1143.83 645.962 1143.83 630.919L1203.04 630.919C1203.33 636.254 1205.25 640.531 1208.78 643.727 1212.31 646.923 1218.37 648.533 1226.9 648.533 1233.8 648.533 1238.99 647.62 1242.47 645.77 1245.96 643.919 1247.9 641.348 1248.29 638.056 1248.77 635.341 1248.29 632.794 1246.89 630.415 1245.47 628.036 1242.25 625.441 1237.21 622.629 1232.16 619.818 1224.35 616.43 1213.78 612.441 1204.55 609.053 1195.71 604.439 1187.23 598.624 1178.74 592.809 1172.16 585.239 1167.52 575.916 1162.89 566.592 1161.52 555.058 1163.44 541.289 1165.19 529.851 1169.73 520.48 1177.11 513.199 1184.49 505.918 1193.98 500.607 1205.63 497.267 1217.29 493.927 1230.31 492.389 1244.78 492.677 1259.03 492.87 1271.86 494.984 1283.25 498.997 1294.64 503.034 1303.75 509.33 1310.52 517.909 1317.3 526.487 1320.81 537.733 1321 551.598L1262.08 551.598C1261.69 546.552 1259.48 542.683 1255.47 539.968 1251.43 537.252 1246.39 535.883 1240.26 535.883 1235.79 535.883 1231.83 536.603 1228.34 538.069 1224.86 539.535 1222.86 542.395 1222.38 546.648 1222.19 548.594 1222.74 550.541 1224.06 552.463 1225.36 554.409 1228.51 556.668 1233.46 559.239 1238.41 561.81 1246.17 565.03 1256.74 568.923 1269.36 573.489 1279.84 578.943 1288.18 585.287 1296.51 591.631 1302.42 599.272 1305.93 608.211 1309.42 617.126 1310.21 627.699 1308.26 639.93 1306.22 653.123 1301.27 663.648 1293.41 671.505 1285.56 679.363 1275.51 685.034 1263.3 688.518 1251.1 692.003 1237.35 693.757 1222.14 693.757Z" fill="#000000" fill-rule="nonzero" fill-opacity="1" transform="matrix(1.00278 0 0 1 876.859 1318.48)"/><path d="M1355.22 691.45 1386.79 543.043 1338.49 543.043 1348.39 495.609 1502.76 495.609 1492.57 543.043 1444.27 543.043 1412.41 691.45 1355.24 691.45Z" fill="#000000" fill-rule="nonzero" fill-opacity="1" transform="matrix(1.00278 0 0 1 876.859 1318.48)"/><path d="M1482.67 691.45 1524.43 495.609 1663.23 495.609 1653.04 542.755 1571.41 542.755 1566.03 569.524 1638.19 569.524 1628.29 614.916 1556.56 614.916 1550.31 644.304 1631.65 644.304 1621.46 691.45 1482.67 691.45Z" fill="#000000" fill-rule="nonzero" fill-opacity="1" transform="matrix(1.00278 0 0 1 876.859 1318.48)"/><path d="M1655.8 691.45 1697.57 495.609 1761.87 495.609 1786.6 568.058 1842.9 495.609 1910.54 495.609 1868.78 691.45 1812.19 691.45 1838.67 568.082 1792.55 627.723 1758.51 627.723 1737.7 568.082 1711.22 691.45 1655.78 691.45Z" fill="#000000" fill-rule="nonzero" fill-opacity="1" transform="matrix(1.00278 0 0 1 876.859 1318.48)"/><path d="M1991.16 693.781C1975.44 693.781 1961.72 691.666 1950 687.461 1938.27 683.256 1929.14 676.527 1922.65 667.3 1916.16 658.097 1912.89 645.962 1912.89 630.919L1972.1 630.919C1972.39 636.254 1974.31 640.531 1977.85 643.727 1981.38 646.923 1987.43 648.533 1995.96 648.533 2002.86 648.533 2008.05 647.62 2011.54 645.77 2015.02 643.919 2016.97 641.348 2017.35 638.056 2017.83 635.341 2017.35 632.794 2015.96 630.415 2014.56 628.036 2011.32 625.441 2006.27 622.629 2001.23 619.818 1993.42 616.43 1982.84 612.441 1973.64 609.053 1964.77 604.439 1956.29 598.624 1947.81 592.809 1941.23 585.239 1936.59 575.916 1931.95 566.592 1930.58 555.058 1932.5 541.289 1934.26 529.851 1938.8 520.48 1946.18 513.199 1953.55 505.918 1963.04 500.607 1974.7 497.267 1986.35 493.927 1999.38 492.389 2013.84 492.677 2028.09 492.87 2040.92 494.984 2052.31 498.997 2063.7 503.034 2072.81 509.33 2079.59 517.909 2086.36 526.487 2089.87 537.733 2090.06 551.598L2031.14 551.598C2030.76 546.552 2028.55 542.683 2024.54 539.968 2020.52 537.252 2015.45 535.883 2009.33 535.883 2004.86 535.883 2000.89 536.603 1997.41 538.069 1993.92 539.535 1991.93 542.395 1991.45 546.648 1991.26 548.594 1991.81 550.541 1993.13 552.463 1994.43 554.409 1997.57 556.668 2002.53 559.239 2007.48 561.81 2015.24 565.03 2025.81 568.923 2038.43 573.489 2048.9 578.943 2057.24 585.287 2065.58 591.631 2071.49 599.272 2075 608.211 2078.48 617.126 2079.28 627.699 2077.33 639.93 2075.29 653.123 2070.34 663.648 2062.48 671.505 2054.62 679.363 2044.58 685.034 2032.37 688.518 2020.16 692.003 2006.42 693.757 1991.21 693.757Z" fill="#000000" fill-rule="nonzero" fill-opacity="1" transform="matrix(1.00278 0 0 1 876.859 1318.48)"/><path d="M824.285 444.546 933.403 248.706 993.357 248.706 1020.13 444.546 961.782 444.546 959.307 414.726 900.098 414.726 884.815 444.546 824.285 444.546ZM921.46 370.343 956.952 370.343 952.723 305.175 921.436 370.343Z" fill="#000000" fill-rule="nonzero" fill-opacity="1" transform="matrix(1.00278 0 0 1 876.859 1318.48)"/><path d="M1128.5 447.454C1109.49 447.454 1093.03 443.345 1079.09 435.151 1065.18 426.957 1055.04 414.966 1048.7 399.203 1042.35 383.439 1041.01 364.168 1044.68 341.364 1047.88 321.972 1054.3 305.103 1063.88 290.805 1073.5 276.508 1086.01 265.406 1101.49 257.573 1116.96 249.715 1135.18 245.798 1156.13 245.798 1166.42 245.798 1176.51 247.192 1186.39 249.955 1196.26 252.719 1205.2 256.996 1213.15 262.763 1221.11 268.53 1227.4 275.955 1232.07 285.014 1236.73 294.073 1238.91 304.863 1238.6 317.382L1179.68 317.382C1179.3 311.951 1178.05 307.482 1175.98 303.998 1173.89 300.513 1170.74 297.894 1166.51 296.14 1162.28 294.386 1156.73 293.521 1149.86 293.521 1139.96 293.521 1131.74 296.14 1125.21 301.378 1118.67 306.617 1113.55 313.297 1109.85 321.395 1106.18 329.493 1103.6 337.855 1102.14 346.482 1100.77 355.493 1100.77 364.095 1102.14 372.241 1103.48 380.387 1106.75 387.044 1111.89 392.162 1117.04 397.304 1124.56 399.875 1134.43 399.875 1141.21 399.875 1147.05 399.058 1151.9 397.4 1156.76 395.742 1160.77 393.195 1163.99 389.759 1167.19 386.323 1169.57 382.021 1171.13 376.879L1134.46 376.879 1141.88 333.674 1237.47 333.674 1231.51 360.875C1228.89 373.01 1225.22 384.304 1220.46 394.781 1215.7 405.258 1209.41 414.437 1201.55 422.343 1193.69 430.249 1183.79 436.4 1171.87 440.822 1159.95 445.243 1145.49 447.43 1128.52 447.43Z" fill="#000000" fill-rule="nonzero" fill-opacity="1" transform="matrix(1.00278 0 0 1 876.859 1318.48)"/><path d="M1244.47 444.546 1286.23 248.706 1425.02 248.706 1414.83 295.852 1333.21 295.852 1327.82 322.62 1399.98 322.62 1390.08 368.012 1318.36 368.012 1312.11 397.4 1393.45 397.4 1383.26 444.546 1244.47 444.546Z" fill="#000000" fill-rule="nonzero" fill-opacity="1" transform="matrix(1.00278 0 0 1 876.859 1318.48)"/><path d="M1417.6 444.546 1459.36 248.706 1514.51 248.706 1561.8 359.578 1585.08 248.706 1638.77 248.706 1597 444.546 1541.85 444.546 1494.71 332.809 1470.99 444.546 1417.6 444.546Z" fill="#000000" fill-rule="nonzero" fill-opacity="1" transform="matrix(1.00278 0 0 1 876.859 1318.48)"/><path d="M1667.84 444.546 1699.42 296.14 1651.12 296.14 1661.02 248.706 1815.38 248.706 1805.19 296.14 1756.9 296.14 1725.03 444.546 1667.87 444.546Z" fill="#000000" fill-rule="nonzero" fill-opacity="1" transform="matrix(1.00278 0 0 1 876.859 1318.48)"/><path d="M1795.29 444.546 1837.06 248.706 1894.22 248.706 1852.75 444.546 1795.27 444.546Z" fill="#000000" fill-rule="nonzero" fill-opacity="1" transform="matrix(1.00278 0 0 1 876.859 1318.48)"/><path d="M1989.24 447.166C1970.52 447.166 1954.23 443.225 1940.36 435.319 1926.5 427.413 1916.31 415.663 1909.82 400.044 1903.31 384.424 1901.87 364.985 1905.45 341.7 1908.83 319.977 1915.71 302.051 1926.04 287.946 1936.37 273.841 1949.25 263.34 1964.68 256.443 1980.11 249.547 1997.12 246.11 2015.74 246.11 2034.36 246.11 2048.97 249.33 2061.64 255.794 2074.3 262.234 2083.84 271.101 2090.3 282.347 2096.74 293.593 2099.58 306.545 2098.81 321.203L2039.6 321.203C2039.6 315.868 2038.47 311.134 2036.19 307.025 2033.91 302.916 2030.66 299.672 2026.43 297.341 2022.21 295.011 2017.14 293.857 2011.22 293.857 2001.52 293.857 1993.35 296.116 1986.71 300.633 1980.08 305.151 1974.79 311.375 1970.93 319.328 1967.03 327.282 1964.27 336.437 1962.64 346.818 1961.07 356.718 1961.03 365.633 1962.49 373.587 1963.96 381.541 1967.2 387.813 1972.25 392.426 1977.29 397.04 1984.41 399.347 1993.63 399.347 2003.53 399.347 2011.9 396.752 2018.72 391.561 2025.57 386.371 2029.94 378.345 2031.89 367.484L2090.81 367.484C2085.48 394.925 2074.06 415.086 2056.54 427.942 2039.03 440.798 2016.61 447.214 1989.26 447.214Z" fill="#000000" fill-rule="nonzero" fill-opacity="1" transform="matrix(1.00278 0 0 1 876.859 1318.48)"/><path d="M2141.03 694.117 2182.51 498.276 2201.27 498.276 2162.73 678.258 2258.75 678.258 2255.41 694.117 2141.06 694.117Z" fill="#000000" fill-rule="nonzero" fill-opacity="1" transform="matrix(1.00278 0 0 1 876.859 1318.48)"/><path d="M2265.26 694.117 2381.81 498.276 2401.73 498.276 2433.59 694.117 2414.82 694.117 2407.11 633.298 2320.39 633.298 2285.47 694.117 2265.24 694.117ZM2329.59 617.295 2404.08 617.295 2388.37 517.043 2329.59 617.295Z" fill="#000000" fill-rule="nonzero" fill-opacity="1" transform="matrix(1.00278 0 0 1 876.859 1318.48)"/><path d="M2461.68 694.117 2503.16 498.276 2561.21 498.276C2574.31 498.276 2585.27 500.559 2594.08 505.125 2602.9 509.69 2609.17 516.13 2612.85 524.469 2616.53 532.807 2617.13 542.659 2614.61 554.001 2612.66 562.82 2608.07 570.533 2600.79 577.141 2593.51 583.749 2584.69 588.051 2574.31 590.093 2582.45 592.04 2589.52 595.38 2595.48 600.138 2601.44 604.895 2605.69 610.999 2608.21 618.472 2610.74 625.945 2610.88 634.86 2608.65 645.241 2606.8 654.348 2602.73 662.638 2596.42 670.039 2590.1 677.441 2581.42 683.328 2570.37 687.653 2559.31 691.978 2545.64 694.117 2529.35 694.117L2461.71 694.117ZM2483.36 678.258 2531.08 678.258C2546.89 678.258 2560.11 675.23 2570.73 669.174 2581.35 663.119 2587.91 654.156 2590.43 642.333 2593.24 628.468 2590.74 617.895 2582.93 610.614 2575.12 603.333 2563.42 599.705 2547.8 599.705L2500.08 599.705 2483.36 678.282ZM2503.73 583.557 2546.07 583.557C2560.83 583.557 2572.46 580.65 2580.99 574.834 2589.52 569.019 2594.85 561.114 2596.99 551.117 2599.32 539.583 2597.28 530.524 2590.89 523.988 2584.5 517.452 2573.47 514.16 2557.87 514.16L2518.58 514.16 2503.73 583.557Z" fill="#000000" fill-rule="nonzero" fill-opacity="1" transform="matrix(1.00278 0 0 1 876.859 1318.48)"/><path d="M454.495 152.491C454.639 153.669 453.485 154.438 452.74 155.135 449.16 158.475 444.498 161.575 440.726 164.843 392.57 206.582 348.789 263.051 318.271 319.088 296.212 359.626 278.67 402.975 271.221 448.848L270.284 449.472C248.513 390.6 229.987 328.82 225.685 265.695 224.988 255.338 224.532 244.404 224.724 234.048 224.772 231.452 225.013 222.249 226.238 220.567 283.621 171.859 361.62 148.527 436.593 151.314 442.408 151.53 448.703 153.044 454.471 152.515Z" fill="#000000" fill-rule="nonzero" fill-opacity="1" transform="matrix(1.00278 0 0 1 876.859 1318.48)"/><path d="M584.542 198.003C612.993 216.65 646.563 245.558 665.618 274.033 666.147 274.802 669.198 279.007 668.646 279.512 649.927 276.796 630.967 275.09 612.056 274.778 530.668 273.408 427.365 289.82 354.844 327.498L330.718 341.243C334.299 333.938 338.095 326.585 342.229 319.545 377.864 258.582 425.875 202.665 479.918 157.61 482.345 156.552 501.64 161.166 505.581 162.151 533.287 169.168 560.681 182.312 584.542 197.979Z" fill="#000000" fill-rule="nonzero" fill-opacity="1" transform="matrix(1.00278 0 0 1 876.859 1318.48)"/><path d="M307.242 561.21C281.987 552.871 257.212 542.707 233.399 530.86 196.225 512.382 154.702 486.382 124.209 458.003 122.262 456.201 112.026 446.3 111.569 444.787 110.752 442.095 111.641 434.79 111.978 431.594 114.453 407.325 121.061 381.925 129.351 359.025 145.403 314.763 170.754 274.057 204.323 241.281 204.107 298.687 215.305 355.181 233.086 409.463 250.868 463.746 275.378 514.4 307.29 561.186L307.29 561.186Z" fill="#000000" fill-rule="nonzero" fill-opacity="1" transform="matrix(1.00278 0 0 1 876.859 1318.48)"/><path d="M526.078 571.206C521.393 584.206 517.043 597.35 511.853 610.158 493.23 656.319 466.509 704.69 435.703 743.786 427.63 754.023 418.907 763.755 409.487 772.79 397.04 773.15 384.473 772.67 372.121 771.06 347.972 767.936 320.218 760.15 297.678 750.995 267.088 738.572 237.099 719.636 213.935 696.16 235.826 694.478 257.573 690.969 278.959 686.067 359.866 667.492 437.458 630.054 506.855 585.311L526.055 571.23Z" fill="#000000" fill-rule="nonzero" fill-opacity="1" transform="matrix(1.00278 0 0 1 876.859 1318.48)"/><path d="M686.091 303.205C724.106 361.092 739.821 433.925 727.903 502.385 703.489 473.141 674.797 446.973 644.712 423.617 588.988 380.387 525.574 342.589 459.493 317.718L447.478 313.898C447.478 313.081 461.463 310.582 463.193 310.269 500.775 303.157 539.775 298.303 577.958 296.548 613.931 294.914 650.84 295.659 686.067 303.181Z" fill="#000000" fill-rule="nonzero" fill-opacity="1" transform="matrix(1.00278 0 0 1 876.859 1318.48)"/><path d="M111.857 476.53C112.026 477.539 113.347 478.812 114.092 479.437 180.654 536.075 267.689 578.391 351.816 602.661L406.363 616.766C403.119 618.448 399.755 620.034 396.391 621.452 360.179 636.903 322.741 651.729 284.582 661.701 254.689 669.511 223.138 675.326 192.212 672.611 140.789 622.077 115.198 548.258 110.656 476.794L111.809 476.506Z" fill="#000000" fill-rule="nonzero" fill-opacity="1" transform="matrix(1.00278 0 0 1 876.859 1318.48)"/><path d="M624.984 699.764C623.062 702.648 609.149 712.548 605.472 715.167 556.692 749.841 497.435 770.964 437.506 774.087 437.097 773.583 439.38 770.891 439.861 770.267 455.864 749.721 470.546 732.42 484.916 710.145 528.89 641.973 557.509 564.141 568.346 483.546 569.188 483.594 569.26 484.459 569.524 484.988 571.903 489.554 574.234 495.729 576.252 500.607 601.675 562.411 620.803 629.454 626.306 696.304 626.378 697.649 625.705 698.683 625.008 699.74L625.008 699.74Z" fill="#000000" fill-rule="nonzero" fill-opacity="1" transform="matrix(1.00278 0 0 1 876.859 1318.48)"/><path d="M582.188 406.171C628.084 435.199 683.784 477.395 716.392 521.273 717.858 523.243 723.361 530.428 723.673 532.254 723.914 533.552 723.289 536.916 723.049 538.43 715.527 584.134 689.167 628.492 660.98 664.417 656.703 669.847 651.248 675.23 647.235 680.612 646.731 681.285 646.394 682.102 646.322 682.943 645.217 682.679 645.145 681.405 644.977 680.492 643.991 675.086 644.064 668.357 643.343 662.734 630.703 567.578 593.842 473.141 544.149 391.681 543.067 389.903 538.141 383.295 537.805 382.142 537.469 380.94 538.454 381.156 539.151 381.373 541.481 382.07 545.879 385.289 548.138 386.467 559.72 392.643 571.038 399.155 582.163 406.171L582.163 406.171Z" fill="#000000" fill-rule="nonzero" fill-opacity="1" transform="matrix(1.00278 0 0 1 876.859 1318.48)"/></g></g></g></g></g></svg>